solid OpenSCAD_Model
  facet normal 1 -0 0
    outer loop
      vertex 28 0 4
      vertex 28 28 0
      vertex 28 28 4
    endloop
  endfacet
  facet normal 1 0 0
    outer loop
      vertex 28 28 0
      vertex 28 0 4
      vertex 28 0 0
    endloop
  endfacet
  facet normal 0 0 1
    outer loop
      vertex 4.5 28 4
      vertex 0 28 4
      vertex 4.5 4.5 4
    endloop
  endfacet
  facet normal 0 0 1
    outer loop
      vertex 23.7 4.5 4
      vertex 28 28 4
      vertex 23.7 28 4
    endloop
  endfacet
  facet normal 0 0 1
    outer loop
      vertex 28 28 4
      vertex 23.7 4.5 4
      vertex 28 0 4
    endloop
  endfacet
  facet normal -0 0 1
    outer loop
      vertex 4.5 4.5 4
      vertex 28 0 4
      vertex 23.7 4.5 4
    endloop
  endfacet
  facet normal 0 0 1
    outer loop
      vertex 4.5 4.5 4
      vertex 0 0 4
      vertex 28 0 4
    endloop
  endfacet
  facet normal 0 0 1
    outer loop
      vertex 0 0 4
      vertex 4.5 4.5 4
      vertex 0 28 4
    endloop
  endfacet
  facet normal 0 0 -1
    outer loop
      vertex 28 0 0
      vertex 23.7 4.5 0
      vertex 28 28 0
    endloop
  endfacet
  facet normal 0 0 -1
    outer loop
      vertex 28 0 0
      vertex 4.5 4.5 0
      vertex 23.7 4.5 0
    endloop
  endfacet
  facet normal 0 0 -1
    outer loop
      vertex 0 0 0
      vertex 4.5 4.5 0
      vertex 28 0 0
    endloop
  endfacet
  facet normal 0 0 -1
    outer loop
      vertex 0 28 0
      vertex 4.5 4.5 0
      vertex 0 0 0
    endloop
  endfacet
  facet normal 0 0 -1
    outer loop
      vertex 4.5 4.5 0
      vertex 0 28 0
      vertex 4.5 28 0
    endloop
  endfacet
  facet normal -0 0 -1
    outer loop
      vertex 28 28 0
      vertex 23.7 4.5 0
      vertex 23.7 28 0
    endloop
  endfacet
  facet normal -1 0 0
    outer loop
      vertex 0 0 0
      vertex 0 28 4
      vertex 0 28 0
    endloop
  endfacet
  facet normal -1 -0 0
    outer loop
      vertex 0 28 4
      vertex 0 0 0
      vertex 0 0 4
    endloop
  endfacet
  facet normal 0 1 0
    outer loop
      vertex 4.5 28 2
      vertex 4.5 28 0
      vertex 3 28 2
    endloop
  endfacet
  facet normal 0 1 0
    outer loop
      vertex 3 28 2.6
      vertex 4.5 28 4
      vertex 4.5 28 2.6
    endloop
  endfacet
  facet normal 0 1 0
    outer loop
      vertex 4.5 28 4
      vertex 3 28 2.6
      vertex 0 28 4
    endloop
  endfacet
  facet normal 0 1 -0
    outer loop
      vertex 3 28 2
      vertex 0 28 4
      vertex 3 28 2.6
    endloop
  endfacet
  facet normal 0 1 0
    outer loop
      vertex 0 28 0
      vertex 3 28 2
      vertex 4.5 28 0
    endloop
  endfacet
  facet normal 0 1 0
    outer loop
      vertex 3 28 2
      vertex 0 28 0
      vertex 0 28 4
    endloop
  endfacet
  facet normal 0 1 0
    outer loop
      vertex 28 28 4
      vertex 25.2 28 2.6
      vertex 23.7 28 4
    endloop
  endfacet
  facet normal 0 1 0
    outer loop
      vertex 28 28 4
      vertex 25.2 28 2
      vertex 25.2 28 2.6
    endloop
  endfacet
  facet normal 0 1 -0
    outer loop
      vertex 28 28 0
      vertex 25.2 28 2
      vertex 28 28 4
    endloop
  endfacet
  facet normal 0 1 0
    outer loop
      vertex 23.7 28 0
      vertex 25.2 28 2
      vertex 28 28 0
    endloop
  endfacet
  facet normal 0 1 0
    outer loop
      vertex 25.2 28 2
      vertex 23.7 28 0
      vertex 23.7 28 2
    endloop
  endfacet
  facet normal 0 1 0
    outer loop
      vertex 23.7 28 4
      vertex 25.2 28 2.6
      vertex 23.7 28 2.6
    endloop
  endfacet
  facet normal 0 -1 0
    outer loop
      vertex 0 0 0
      vertex 28 0 4
      vertex 0 0 4
    endloop
  endfacet
  facet normal 0 -1 -0
    outer loop
      vertex 28 0 4
      vertex 0 0 0
      vertex 28 0 0
    endloop
  endfacet
  facet normal -1 0 0
    outer loop
      vertex 23.7 4.5 2.6
      vertex 23.7 28 4
      vertex 23.7 28 2.6
    endloop
  endfacet
  facet normal -1 -0 0
    outer loop
      vertex 23.7 28 4
      vertex 23.7 4.5 2.6
      vertex 23.7 4.5 4
    endloop
  endfacet
  facet normal -1 0 0
    outer loop
      vertex 23.7 4.5 0
      vertex 23.7 28 2
      vertex 23.7 28 0
    endloop
  endfacet
  facet normal -1 -0 0
    outer loop
      vertex 23.7 28 2
      vertex 23.7 4.5 0
      vertex 23.7 4.5 2
    endloop
  endfacet
  facet normal 1 -0 0
    outer loop
      vertex 4.5 4.5 4
      vertex 4.5 28 2.6
      vertex 4.5 28 4
    endloop
  endfacet
  facet normal 1 0 0
    outer loop
      vertex 4.5 28 2.6
      vertex 4.5 4.5 4
      vertex 4.5 4.5 2.6
    endloop
  endfacet
  facet normal 1 -0 0
    outer loop
      vertex 4.5 4.5 2
      vertex 4.5 28 0
      vertex 4.5 28 2
    endloop
  endfacet
  facet normal 1 0 0
    outer loop
      vertex 4.5 28 0
      vertex 4.5 4.5 2
      vertex 4.5 4.5 0
    endloop
  endfacet
  facet normal 0 1 -0
    outer loop
      vertex 23.7 4.5 2.6
      vertex 4.5 4.5 4
      vertex 23.7 4.5 4
    endloop
  endfacet
  facet normal 0 1 0
    outer loop
      vertex 4.5 4.5 4
      vertex 23.7 4.5 2.6
      vertex 4.5 4.5 2.6
    endloop
  endfacet
  facet normal 0 1 -0
    outer loop
      vertex 23.7 4.5 0
      vertex 4.5 4.5 2
      vertex 23.7 4.5 2
    endloop
  endfacet
  facet normal 0 1 0
    outer loop
      vertex 4.5 4.5 2
      vertex 23.7 4.5 0
      vertex 4.5 4.5 0
    endloop
  endfacet
  facet normal -1 0 0
    outer loop
      vertex 25.2 3 2
      vertex 25.2 28 2.6
      vertex 25.2 28 2
    endloop
  endfacet
  facet normal -1 -0 0
    outer loop
      vertex 25.2 28 2.6
      vertex 25.2 3 2
      vertex 25.2 3 2.6
    endloop
  endfacet
  facet normal 0 0 -1
    outer loop
      vertex 25.2 3 2.6
      vertex 23.7 4.5 2.6
      vertex 25.2 28 2.6
    endloop
  endfacet
  facet normal 0 0 -1
    outer loop
      vertex 25.2 3 2.6
      vertex 4.5 4.5 2.6
      vertex 23.7 4.5 2.6
    endloop
  endfacet
  facet normal 0 0 -1
    outer loop
      vertex 3 3 2.6
      vertex 4.5 4.5 2.6
      vertex 25.2 3 2.6
    endloop
  endfacet
  facet normal 0 0 -1
    outer loop
      vertex 3 28 2.6
      vertex 4.5 4.5 2.6
      vertex 3 3 2.6
    endloop
  endfacet
  facet normal 0 0 -1
    outer loop
      vertex 4.5 4.5 2.6
      vertex 3 28 2.6
      vertex 4.5 28 2.6
    endloop
  endfacet
  facet normal -0 0 -1
    outer loop
      vertex 25.2 28 2.6
      vertex 23.7 4.5 2.6
      vertex 23.7 28 2.6
    endloop
  endfacet
  facet normal 0 0 1
    outer loop
      vertex 4.5 28 2
      vertex 3 28 2
      vertex 4.5 4.5 2
    endloop
  endfacet
  facet normal 0 0 1
    outer loop
      vertex 23.7 4.5 2
      vertex 25.2 28 2
      vertex 23.7 28 2
    endloop
  endfacet
  facet normal 0 0 1
    outer loop
      vertex 25.2 28 2
      vertex 23.7 4.5 2
      vertex 25.2 3 2
    endloop
  endfacet
  facet normal -0 0 1
    outer loop
      vertex 4.5 4.5 2
      vertex 25.2 3 2
      vertex 23.7 4.5 2
    endloop
  endfacet
  facet normal 0 0 1
    outer loop
      vertex 4.5 4.5 2
      vertex 3 3 2
      vertex 25.2 3 2
    endloop
  endfacet
  facet normal 0 0 1
    outer loop
      vertex 3 3 2
      vertex 4.5 4.5 2
      vertex 3 28 2
    endloop
  endfacet
  facet normal 1 -0 0
    outer loop
      vertex 3 3 2.6
      vertex 3 28 2
      vertex 3 28 2.6
    endloop
  endfacet
  facet normal 1 0 0
    outer loop
      vertex 3 28 2
      vertex 3 3 2.6
      vertex 3 3 2
    endloop
  endfacet
  facet normal 0 1 -0
    outer loop
      vertex 25.2 3 2
      vertex 3 3 2.6
      vertex 25.2 3 2.6
    endloop
  endfacet
  facet normal 0 1 0
    outer loop
      vertex 3 3 2.6
      vertex 25.2 3 2
      vertex 3 3 2
    endloop
  endfacet
endsolid OpenSCAD_Model
