solid OpenSCAD_Model
  facet normal 1 -0 0
    outer loop
      vertex 28.2 0 2.6
      vertex 28.2 28.2 0
      vertex 28.2 28.2 2.6
    endloop
  endfacet
  facet normal 1 0 0
    outer loop
      vertex 28.2 28.2 0
      vertex 28.2 0 2.6
      vertex 28.2 0 0
    endloop
  endfacet
  facet normal 0 0 1
    outer loop
      vertex 4 28.2 2.6
      vertex 0 28.2 2.6
      vertex 4 4 2.6
    endloop
  endfacet
  facet normal 0 0 1
    outer loop
      vertex 24.2 4 2.6
      vertex 28.2 28.2 2.6
      vertex 24.2 28.2 2.6
    endloop
  endfacet
  facet normal 0 0 1
    outer loop
      vertex 28.2 28.2 2.6
      vertex 24.2 4 2.6
      vertex 28.2 0 2.6
    endloop
  endfacet
  facet normal -0 0 1
    outer loop
      vertex 4 4 2.6
      vertex 28.2 0 2.6
      vertex 24.2 4 2.6
    endloop
  endfacet
  facet normal 0 0 1
    outer loop
      vertex 4 4 2.6
      vertex 0 0 2.6
      vertex 28.2 0 2.6
    endloop
  endfacet
  facet normal 0 0 1
    outer loop
      vertex 0 0 2.6
      vertex 4 4 2.6
      vertex 0 28.2 2.6
    endloop
  endfacet
  facet normal 0 0 -1
    outer loop
      vertex 28.2 0 0
      vertex 24.2 4 0
      vertex 28.2 28.2 0
    endloop
  endfacet
  facet normal 0 0 -1
    outer loop
      vertex 28.2 0 0
      vertex 4 4 0
      vertex 24.2 4 0
    endloop
  endfacet
  facet normal 0 0 -1
    outer loop
      vertex 0 0 0
      vertex 4 4 0
      vertex 28.2 0 0
    endloop
  endfacet
  facet normal 0 0 -1
    outer loop
      vertex 0 28.2 0
      vertex 4 4 0
      vertex 0 0 0
    endloop
  endfacet
  facet normal 0 0 -1
    outer loop
      vertex 4 4 0
      vertex 0 28.2 0
      vertex 4 28.2 0
    endloop
  endfacet
  facet normal -0 0 -1
    outer loop
      vertex 28.2 28.2 0
      vertex 24.2 4 0
      vertex 24.2 28.2 0
    endloop
  endfacet
  facet normal -1 0 0
    outer loop
      vertex 0 0 0
      vertex 0 28.2 2.6
      vertex 0 28.2 0
    endloop
  endfacet
  facet normal -1 -0 0
    outer loop
      vertex 0 28.2 2.6
      vertex 0 0 0
      vertex 0 0 2.6
    endloop
  endfacet
  facet normal 0 1 0
    outer loop
      vertex 4 28.2 0.5
      vertex 4 28.2 0
      vertex 2 28.2 0.5
    endloop
  endfacet
  facet normal 0 1 0
    outer loop
      vertex 2 28.2 1.1
      vertex 4 28.2 2.6
      vertex 4 28.2 1.1
    endloop
  endfacet
  facet normal 0 1 0
    outer loop
      vertex 4 28.2 2.6
      vertex 2 28.2 1.1
      vertex 0 28.2 2.6
    endloop
  endfacet
  facet normal 0 1 0
    outer loop
      vertex 0 28.2 0
      vertex 2 28.2 1.1
      vertex 2 28.2 0.5
    endloop
  endfacet
  facet normal 0 1 0
    outer loop
      vertex 2 28.2 1.1
      vertex 0 28.2 0
      vertex 0 28.2 2.6
    endloop
  endfacet
  facet normal 0 1 0
    outer loop
      vertex 0 28.2 0
      vertex 2 28.2 0.5
      vertex 4 28.2 0
    endloop
  endfacet
  facet normal 0 1 0
    outer loop
      vertex 28.2 28.2 2.6
      vertex 26.2 28.2 1.1
      vertex 24.2 28.2 2.6
    endloop
  endfacet
  facet normal 0 1 -0
    outer loop
      vertex 28.2 28.2 0
      vertex 26.2 28.2 1.1
      vertex 28.2 28.2 2.6
    endloop
  endfacet
  facet normal 0 1 0
    outer loop
      vertex 26.2 28.2 1.1
      vertex 28.2 28.2 0
      vertex 26.2 28.2 0.5
    endloop
  endfacet
  facet normal 0 1 0
    outer loop
      vertex 24.2 28.2 0
      vertex 26.2 28.2 0.5
      vertex 28.2 28.2 0
    endloop
  endfacet
  facet normal 0 1 0
    outer loop
      vertex 26.2 28.2 0.5
      vertex 24.2 28.2 0
      vertex 24.2 28.2 0.5
    endloop
  endfacet
  facet normal 0 1 0
    outer loop
      vertex 24.2 28.2 2.6
      vertex 26.2 28.2 1.1
      vertex 24.2 28.2 1.1
    endloop
  endfacet
  facet normal 0 -1 0
    outer loop
      vertex 0 0 0
      vertex 28.2 0 2.6
      vertex 0 0 2.6
    endloop
  endfacet
  facet normal 0 -1 -0
    outer loop
      vertex 28.2 0 2.6
      vertex 0 0 0
      vertex 28.2 0 0
    endloop
  endfacet
  facet normal -1 0 0
    outer loop
      vertex 26.2 2 0.5
      vertex 26.2 28.2 1.1
      vertex 26.2 28.2 0.5
    endloop
  endfacet
  facet normal -1 -0 0
    outer loop
      vertex 26.2 28.2 1.1
      vertex 26.2 2 0.5
      vertex 26.2 2 1.1
    endloop
  endfacet
  facet normal 0 0 -1
    outer loop
      vertex 26.2 2 1.1
      vertex 24.2 4 1.1
      vertex 26.2 28.2 1.1
    endloop
  endfacet
  facet normal 0 0 -1
    outer loop
      vertex 26.2 2 1.1
      vertex 4 4 1.1
      vertex 24.2 4 1.1
    endloop
  endfacet
  facet normal 0 0 -1
    outer loop
      vertex 2 2 1.1
      vertex 4 4 1.1
      vertex 26.2 2 1.1
    endloop
  endfacet
  facet normal 0 0 -1
    outer loop
      vertex 2 28.2 1.1
      vertex 4 4 1.1
      vertex 2 2 1.1
    endloop
  endfacet
  facet normal 0 0 -1
    outer loop
      vertex 4 4 1.1
      vertex 2 28.2 1.1
      vertex 4 28.2 1.1
    endloop
  endfacet
  facet normal -0 0 -1
    outer loop
      vertex 26.2 28.2 1.1
      vertex 24.2 4 1.1
      vertex 24.2 28.2 1.1
    endloop
  endfacet
  facet normal 0 0 1
    outer loop
      vertex 4 28.2 0.5
      vertex 2 28.2 0.5
      vertex 4 4 0.5
    endloop
  endfacet
  facet normal 0 0 1
    outer loop
      vertex 24.2 4 0.5
      vertex 26.2 28.2 0.5
      vertex 24.2 28.2 0.5
    endloop
  endfacet
  facet normal 0 0 1
    outer loop
      vertex 26.2 28.2 0.5
      vertex 24.2 4 0.5
      vertex 26.2 2 0.5
    endloop
  endfacet
  facet normal -0 0 1
    outer loop
      vertex 4 4 0.5
      vertex 26.2 2 0.5
      vertex 24.2 4 0.5
    endloop
  endfacet
  facet normal 0 0 1
    outer loop
      vertex 4 4 0.5
      vertex 2 2 0.5
      vertex 26.2 2 0.5
    endloop
  endfacet
  facet normal 0 0 1
    outer loop
      vertex 2 2 0.5
      vertex 4 4 0.5
      vertex 2 28.2 0.5
    endloop
  endfacet
  facet normal 1 -0 0
    outer loop
      vertex 2 2 1.1
      vertex 2 28.2 0.5
      vertex 2 28.2 1.1
    endloop
  endfacet
  facet normal 1 0 0
    outer loop
      vertex 2 28.2 0.5
      vertex 2 2 1.1
      vertex 2 2 0.5
    endloop
  endfacet
  facet normal 0 1 -0
    outer loop
      vertex 26.2 2 0.5
      vertex 2 2 1.1
      vertex 26.2 2 1.1
    endloop
  endfacet
  facet normal 0 1 0
    outer loop
      vertex 2 2 1.1
      vertex 26.2 2 0.5
      vertex 2 2 0.5
    endloop
  endfacet
  facet normal -1 0 0
    outer loop
      vertex 24.2 4 1.1
      vertex 24.2 28.2 2.6
      vertex 24.2 28.2 1.1
    endloop
  endfacet
  facet normal -1 -0 0
    outer loop
      vertex 24.2 28.2 2.6
      vertex 24.2 4 1.1
      vertex 24.2 4 2.6
    endloop
  endfacet
  facet normal -1 0 0
    outer loop
      vertex 24.2 4 0
      vertex 24.2 28.2 0.5
      vertex 24.2 28.2 0
    endloop
  endfacet
  facet normal -1 -0 0
    outer loop
      vertex 24.2 28.2 0.5
      vertex 24.2 4 0
      vertex 24.2 4 0.5
    endloop
  endfacet
  facet normal 1 -0 0
    outer loop
      vertex 4 4 2.6
      vertex 4 28.2 1.1
      vertex 4 28.2 2.6
    endloop
  endfacet
  facet normal 1 0 0
    outer loop
      vertex 4 28.2 1.1
      vertex 4 4 2.6
      vertex 4 4 1.1
    endloop
  endfacet
  facet normal 1 -0 0
    outer loop
      vertex 4 4 0.5
      vertex 4 28.2 0
      vertex 4 28.2 0.5
    endloop
  endfacet
  facet normal 1 0 0
    outer loop
      vertex 4 28.2 0
      vertex 4 4 0.5
      vertex 4 4 0
    endloop
  endfacet
  facet normal 0 1 -0
    outer loop
      vertex 24.2 4 0
      vertex 4 4 0.5
      vertex 24.2 4 0.5
    endloop
  endfacet
  facet normal 0 1 0
    outer loop
      vertex 4 4 0.5
      vertex 24.2 4 0
      vertex 4 4 0
    endloop
  endfacet
  facet normal 0 1 -0
    outer loop
      vertex 24.2 4 1.1
      vertex 4 4 2.6
      vertex 24.2 4 2.6
    endloop
  endfacet
  facet normal 0 1 0
    outer loop
      vertex 4 4 2.6
      vertex 24.2 4 1.1
      vertex 4 4 1.1
    endloop
  endfacet
endsolid OpenSCAD_Model
